<svg class="aside-icon icon-develop" viewBox="0 0 1024 1024" version="1.1" xmlns="http://www.w3.org/2000/svg"><path d="M867.555 773.654h-711.11C120.358 773.654 91 745.44 91 710.76V211.502c0-34.68 29.358-62.894 65.445-62.894h711.111c36.086 0 65.445 28.214 65.445 62.894V710.76c-0.001 34.68-29.359 62.894-65.446 62.894z m-702.555-74h694V222.608H165v477.046zM683.124 901H340.876c-20.435 0-37-16.565-37-37s16.565-37 37-37h342.247c20.435 0 37 16.565 37 37s-16.565 37-36.999 37z"></path><path d="M434.596 646.292a31.853 31.853 0 0 1-14.444-3.465c-15.763-7.992-22.063-27.249-14.072-43.012l154.757-305.259c7.991-15.763 27.249-22.063 43.011-14.072 15.763 7.992 22.063 27.249 14.072 43.012L463.163 628.755c-5.64 11.125-16.893 17.537-28.567 17.537zM666.61 589.038c-8.506 0.001-16.992-3.369-23.288-10.047-12.125-12.857-11.53-33.11 1.328-45.235l70.766-66.729-70.906-66.749c-12.868-12.113-13.48-32.365-1.366-45.233 12.114-12.871 32.367-13.479 45.234-1.366l95.637 90.029a31.998 31.998 0 0 1 0.02 46.582l-95.477 90.03a31.898 31.898 0 0 1-21.948 8.718zM357.39 589.037a31.89 31.89 0 0 1-21.948-8.718l-95.477-90.029a32.002 32.002 0 0 1 0.02-46.582l95.637-90.029c12.869-12.115 33.12-11.502 45.234 1.366 12.114 12.868 11.502 33.12-1.366 45.233l-70.906 66.749 70.766 66.728c12.858 12.125 13.453 32.377 1.328 45.235-6.296 6.677-14.783 10.047-23.288 10.047z"></path></svg>