<svg class="icon" viewBox="0 0 1024 1024" version="1.1" xmlns="http://www.w3.org/2000/svg" width="2rem" height="2rem"><path d="M853.333333 213.333333a42.666667 42.666667 0 0 1 42.666667 42.666667v597.333333a42.666667 42.666667 0 0 1-42.666667 42.666667H170.666667a42.666667 42.666667 0 0 1-42.666667-42.666667V256a42.666667 42.666667 0 0 1 42.666667-42.666667h213.333333v85.333334H213.333333v512h597.333334V298.666667h-170.666667V213.333333z" fill="#2c2c2c" p-id="4789"></path><path d="M351.829333 492.586667l20.053334-20.096c11.136-11.093333 29.141333-11.093333 40.277333 0l57.856 57.941333V114.474667c0-15.701333 12.8-28.416 28.458667-28.416h28.458666c15.701333 0 28.458667 12.714667 28.458667 28.416v415.914666l57.898667-57.898666c11.093333-11.093333 29.098667-11.093333 40.234666 0l20.096 20.096c11.093333 11.093333 11.093333 29.141333 0 40.234666l-140.8 140.8a28.458667 28.458667 0 0 1-40.234666 0l-140.8-140.8a28.458667 28.458667 0 0 1 0-40.234666z" fill="#2c2c2c"></path></svg>