<svg class="aside-icon icon-setting" viewBox="0 0 1024 1024" version="1.1" xmlns="http://www.w3.org/2000/svg"><path d="M994.817896 382.280107c18.750828 19.83876 29.246172 46.781076 29.11818 74.875321l-0.255984 112.184988c-0.095994 58.07637-44.7972 105.401412-99.705768 105.497407-0.15999 0.127992-20.95869 2.23986-52.700707 5.311668a390.3956 390.3956 0 0 1-17.310918 36.15774 396.246235 396.246235 0 0 1-26.39835 41.533404c12.223236 28.382226 20.670708 48.188988 22.87857 53.404662 12.607212 23.966502 15.871008 52.220736 9.023436 78.683082-6.847572 27.134304-23.646522 50.268858-46.71708 64.187989l-91.802262 55.804512c-15.103056 9.215424-32.285982 14.07912-49.660896 14.07912-35.709768-0.063996-68.667708-20.190738-86.586589-52.924692-0.127992 0-13.471158-19.774764-33.501906-49.852884-26.590338 2.623836-53.372664 2.335854-79.931004-0.735954-21.470658 31.998-35.645772 52.700706-35.645772 52.700706-16.126992 29.790138-49.244922 50.012874-84.762703 50.012874-17.566902-0.031998-34.845822-4.95969-50.044872-14.303106l-91.578276-56.284482c-22.974564-14.015124-39.67752-37.181676-46.3971-64.315981-6.87957-27.03831-3.263796-55.83651 10.047372-80.058996-0.063996-0.127992 9.535404-22.526592 24.286482-56.252484-15.711018-22.846572-29.182176-47.35704-40.189488-73.11543-36.573714-3.647772-60.348228-6.207612-60.348229-6.207612h-0.031998c-51.99675 0-96.665958-47.51703-96.601962-105.817387l0.255984-112.120992c0.15999-58.140366 44.861196-105.43341 99.641772-105.529405 0.223986-0.127992 21.566652-2.303856 54.044623-5.43966a405.720642 405.720642 0 0 1 20.95869-44.861196 378.510343 378.510343 0 0 1 21.054684-33.853884c-14.047122-32.541966-23.006562-53.628648-23.006562-53.628648-26.046372-47.709018-9.535404-112.47297 38.205612-141.527155l91.83426-55.868508C318.124189 4.831698 335.307115 0 352.650031 0c35.67777 0.031998 68.667708 20.190738 86.554591 52.892694 0.15999 0 11.327292 16.574964 28.31823 42.07737 30.206112-3.775764 60.732204-3.807762 90.938316-0.15999 18.206862-27.006312 29.822136-44.093244 29.822136-44.093244C604.442294 20.926692 637.560224 0.703956 673.110003 0.703956c17.566902 0.031998 34.845822 4.95969 50.044872 14.303106l91.546278 56.284482c47.549028 29.182176 63.83601 93.882132 36.381726 144.342979 0.063996 0.127992-7.807512 18.39885-20.094744 46.589088 18.014874 25.950378 33.11793 54.044622 45.021186 83.706768 26.462346 2.687832 44.893194 4.63971 49.948879 5.215674 25.91838 0.383976 50.652834 11.551278 68.859696 31.070058zM883.336863 601.946378c22.142616-0.15999 37.949628-16.95894 37.981627-37.629648l0.255984-102.71358c0.031998-9.983376-3.647772-19.550778-10.271358-26.590338-7.327542-7.775514-17.342916-10.23936-27.614275-11.167302-0.063996 0-25.502406-2.783826-63.19605-6.591588-10.687332-1.055934-19.806762-8.607462-23.486532-19.35879-11.263296-32.95794-27.774264-63.932004-49.084932-92.090245-6.655584-8.767452-8.063496-20.830698-3.615774-31.102056 15.83901-36.541716 26.302356-61.020186 26.302356-61.052184 5.951628-11.263296 7.231548-21.374664 4.831698-31.102056-2.367852-9.631398-8.255484-17.854884-16.350978-22.846572l-83.1948-51.548779c-16.350978-10.143366-38.749578-3.551778-48.060997 13.631148-1.535904 2.527842-16.286982 24.350478-38.109618 57.180427-6.143616 9.215424-16.63896 13.887132-27.102306 12.095244-33.27792-5.791638-67.131804-5.695644-99.161802 0.191988-10.55934 1.951878-21.246672-2.783826-27.422286-12.127242-21.854634-33.053934-36.733704-55.388538-36.765702-55.420537-11.455284-20.862696-33.085932-26.334354-49.532905-16.286982l-83.386788 51.132805c-16.830948 10.367352-22.622586 33.309918-12.991188 51.292794 1.247922 2.623836 12.383226 28.95819 28.926192 67.579776 4.351728 10.143366 3.007812 22.014624-3.487782 30.750078-10.495344 14.143116-18.462846 26.366352-25.022436 38.493594-8.031498 14.71908-15.071058 30.942066-21.566652 49.532905-3.711768 10.71933-12.895194 18.174864-23.550528 19.1988-40.445472 3.83976-67.963752 6.71958-68.027748 6.71958-0.895944 0.095994-1.983876 0.15999-2.87982 0.15999-19.326792 0-35.069808 16.830948-35.133805 37.501656l-0.223986 102.617586c0 20.734704 15.711018 37.59765 35.133805 37.693644 2.751828 0.15999 31.550028 3.231798 73.691394 7.455534 10.431348 1.023936 19.390788 8.255484 23.230548 18.622836 11.135304 30.07812 26.462346 58.172364 45.469158 83.322793 6.623586 8.79945 7.9995 20.830698 3.551778 31.070058-17.950878 41.341416-30.07812 69.75564-30.110118 69.819636-5.983626 11.295294-7.231548 21.406662-4.831698 31.134054s8.223486 17.790888 16.350978 22.846572l83.1948 51.548779c16.286982 10.111368 38.749578 3.583776 48.092995-13.631148 1.535904-2.527842 18.686832-27.83826 43.35729-64.987939 6.143616-9.183426 16.606962-13.887132 27.070308-12.127242 29.886132 5.183676 60.348228 5.43966 90.298356 0.831948 10.367352-1.567902 20.670708 3.167802 26.686332 12.31923 24.286482 36.893694 41.053434 62.044122 41.085432 62.076121 7.743516 14.07912 19.454784 21.342666 32.093995 21.342666 6.07962 0 12.127242-1.727892 17.43891-5.023686l83.418786-51.100807c8.127492-4.95969 14.047122-13.151178 16.47897-22.814574 2.431848-9.5994 1.183926-19.83876-3.487782-28.446222-0.47997-0.863946-0.895944-1.75989-1.27992-2.623836-0.031998-0.063996-11.327292-26.974314-28.254234-66.39585-4.447722-10.367352-2.911818-22.55859 3.935754-31.326042 11.83926-15.167052 21.534654-29.75814 29.59815-44.541216 6.655584-12.287232 12.63921-25.694394 18.846822-42.269359 3.871758-10.367352 12.895194-17.534904 23.294544-18.526842 39.581526-3.807762 66.491844-6.55959 66.55584-6.55959zM614.681654 334.923067a203.35529 203.35529 0 0 1 95.130055 124.568215 203.289294 203.289294 0 0 1-20.7987 155.35029c-36.541716 62.940066-104.441472 102.009624-177.268921 102.009625a204.552215 204.552215 0 0 1-102.617586-27.67827c-97.625898-56.668458-130.967815-182.228611-74.331355-279.886507 36.541716-62.940066 104.441472-102.009624 177.268921-102.009625a204.552215 204.552215 0 0 1 102.617586 27.67827z m-14.175114 228.497719c13.75914-23.646522 17.43891-51.260796 10.431348-77.659146a101.713643 101.713643 0 0 0-47.581026-62.268108c-15.615024-9.087432-33.341916-13.855134-51.260796-13.855134-36.509718 0.063996-70.267608 19.454784-88.666458 51.004812-28.31823 48.828948-11.647272 111.609024 37.149678 139.927254 15.615024 9.087432 33.341916 13.855134 51.260796 13.855134 36.509718-0.031998 70.267608-19.454784 88.666458-51.004812z"></path></svg>